<svg width="149" height="48" viewBox="0 0 149 48" fill="none" xmlns="http://www.w3.org/2000/svg">
<g clip-path="url(#clip0_172_1352)">
<path d="M148.903 0H0V35.177H148.903V0Z" fill="white"/>
<path d="M0 47.8988V40.5576H2.25861C2.86468 40.5479 3.46249 40.699 3.99123 40.9954C4.49918 41.2846 4.91281 41.7143 5.18242 42.233C5.47523 42.797 5.62278 43.4253 5.61171 44.0607V44.3987C5.6233 45.0311 5.47849 45.6566 5.19015 46.2195C4.92205 46.738 4.50971 47.1678 4.00284 47.4571C3.47511 47.7538 2.87869 47.9067 2.2733 47.9003L0 47.8988ZM1.51296 41.7828V46.6844H2.24314C2.49872 46.7 2.75441 46.6557 2.98982 46.555C3.22524 46.4542 3.43386 46.2999 3.59907 46.1043C3.94159 45.6212 4.1106 45.0365 4.07864 44.4451V44.0584C4.12085 43.4567 3.95719 42.8585 3.61454 42.3621C3.44938 42.1664 3.24058 42.0121 3.00494 41.9118C2.76931 41.8114 2.51341 41.7678 2.25783 41.7843L1.51296 41.7828Z" fill="white"/>
<path d="M12.4533 47.8989H10.938V40.5576H12.4533V47.8989Z" fill="white"/>
<path d="M23.7919 46.9712C23.4821 47.3229 23.0836 47.585 22.6379 47.73C22.1063 47.9157 21.5464 48.0071 20.9834 48C20.3991 48.0125 19.822 47.8689 19.3118 47.5838C18.8291 47.3021 18.4426 46.8813 18.2027 46.3764C17.9299 45.7944 17.7928 45.1581 17.802 44.5154V44.0165C17.7859 43.3626 17.9124 42.713 18.1725 42.1129C18.3959 41.6039 18.7687 41.1747 19.2415 40.8823C19.7364 40.5905 20.303 40.4428 20.8774 40.4561C21.611 40.4125 22.3359 40.6337 22.9202 41.0795C23.4369 41.5462 23.7499 42.1969 23.7919 42.8918H22.3223C22.2891 42.5406 22.1307 42.2131 21.876 41.969C21.6045 41.7606 21.2671 41.6568 20.9254 41.6767C20.6963 41.6648 20.4679 41.7119 20.2622 41.8135C20.0565 41.915 19.8803 42.0677 19.7504 42.2568C19.4448 42.7778 19.301 43.378 19.3374 43.9809V44.4504C19.2951 45.0636 19.4487 45.6744 19.7759 46.1946C19.9252 46.3911 20.1206 46.5478 20.3448 46.6507C20.5691 46.7537 20.8152 46.7997 21.0615 46.7848C21.4988 46.8274 21.9353 46.6969 22.2774 46.4213V45.1558H20.9006V44.0412H23.7896L23.7919 46.9712Z" fill="white"/>
<path d="M30.7565 47.8989H29.2435V40.5576H30.7565V47.8989Z" fill="white"/>
<path d="M41.6697 41.7828H39.4204V47.8989H37.9074V41.7828H35.6891V40.5576H41.6697V41.7828Z" fill="white"/>
<path d="M50.1998 46.3867H47.5498L47.0455 47.8989H45.4374L48.1702 40.5576H49.5717L52.32 47.8989H50.7119L50.1998 46.3867ZM47.9567 45.1615H49.7922L48.8694 42.4132L47.9567 45.1615Z" fill="white"/>
<path d="M58.6495 46.6845H61.861V47.8989H57.1365V40.5576H58.6495V46.6845Z" fill="white"/>
<path d="M77.7061 46.3867H75.0545L74.5502 47.8989H72.9406L75.6741 40.5576H77.0757L79.8231 47.8989H78.2158L77.7061 46.3867ZM75.4629 45.1615H77.2984L76.3757 42.4132L75.4629 45.1615Z" fill="white"/>
<path d="M87.3585 45.2117H86.1534V47.8989H84.6412V40.5576H87.3686C88.0848 40.5116 88.7946 40.7168 89.3758 41.1377C89.6122 41.3376 89.7989 41.5896 89.9213 41.8739C90.0437 42.1581 90.0985 42.467 90.0812 42.776C90.0975 43.2164 89.9846 43.652 89.7564 44.0291C89.513 44.3859 89.1704 44.6637 88.7709 44.8281L90.3589 47.8285V47.8989H88.7346L87.3585 45.2117ZM86.1534 43.9865H87.374C87.6945 44.0068 88.0106 43.9029 88.2566 43.6965C88.3621 43.593 88.4443 43.4682 88.4976 43.3304C88.551 43.1926 88.5743 43.045 88.566 42.8974C88.5743 42.7483 88.5524 42.599 88.5017 42.4585C88.4509 42.318 88.3722 42.1892 88.2705 42.0799C88.1471 41.9725 88.0034 41.8909 87.848 41.8399C87.6926 41.7889 87.5285 41.7695 87.3655 41.7828H86.1503L86.1534 43.9865Z" fill="white"/>
<path d="M100.636 41.7828H98.3886V47.8989H96.8764V41.7828H94.658V40.5576H100.638L100.636 41.7828Z" fill="white"/>
<path d="M117.793 45.4538C117.782 45.8081 117.699 46.1564 117.548 46.4772C117.398 46.7981 117.183 47.0847 116.918 47.3195C116.331 47.7937 115.592 48.0359 114.838 48.0002C114.42 48.0203 114.003 47.9451 113.618 47.7804C113.234 47.6158 112.891 47.3659 112.617 47.0496C112.041 46.3059 111.754 45.3789 111.808 44.4398V43.9912C111.795 43.3496 111.922 42.7128 112.181 42.1255C112.405 41.6159 112.776 41.185 113.247 40.8879C113.814 40.5665 114.464 40.4189 115.114 40.4633C115.764 40.5077 116.387 40.7422 116.905 41.1377C117.444 41.632 117.766 42.3182 117.803 43.0483H116.29C116.291 42.6674 116.15 42.2999 115.894 42.0172C115.603 41.782 115.232 41.6674 114.859 41.697C114.639 41.683 114.42 41.7254 114.222 41.8202C114.024 41.915 113.853 42.059 113.726 42.2384C113.437 42.7497 113.303 43.3338 113.339 43.92V44.4761C113.297 45.0783 113.424 45.6803 113.704 46.215C113.828 46.3984 113.999 46.5458 114.199 46.6422C114.399 46.7387 114.62 46.7807 114.842 46.7641C115.218 46.7938 115.592 46.6797 115.887 46.4447C116.141 46.1771 116.283 45.8226 116.283 45.4538H117.793Z" fill="white"/>
<path d="M124.43 46.6845H127.642V47.8989H122.917V40.5576H124.43V46.6845Z" fill="white"/>
<path d="M138.076 40.5576V45.3935C138.094 45.7466 138.035 46.0994 137.905 46.4282C137.775 46.7569 137.576 47.054 137.322 47.2994C136.752 47.7909 136.013 48.0421 135.262 48.0002C134.52 48.0397 133.79 47.7964 133.22 47.3195C132.964 47.0813 132.763 46.7909 132.63 46.4681C132.496 46.1453 132.434 45.7975 132.446 45.4484V40.5576H133.959V45.4043C133.942 45.5939 133.964 45.7848 134.024 45.9656C134.083 46.1463 134.179 46.313 134.305 46.4555C134.567 46.6872 134.911 46.8059 135.26 46.7858C136.111 46.7858 136.543 46.3387 136.557 45.4446V40.5576H138.076Z" fill="white"/>
<path d="M143.447 47.8988V40.5575H146.018C146.731 40.5092 147.441 40.6882 148.045 41.0688C148.275 41.2428 148.458 41.4707 148.579 41.7325C148.699 41.9943 148.753 42.2817 148.736 42.5694C148.743 42.9068 148.646 43.2383 148.459 43.5193C148.271 43.7964 148 44.0074 147.686 44.1226C148.04 44.2022 148.355 44.404 148.576 44.6926C148.798 44.9959 148.913 45.3648 148.902 45.7407C148.922 46.0422 148.871 46.3442 148.754 46.6226C148.636 46.901 148.455 47.1481 148.226 47.3442C147.665 47.7416 146.986 47.9371 146.3 47.8988H143.447ZM144.96 43.633H146.078C146.842 43.6201 147.224 43.3158 147.224 42.7202C147.237 42.5861 147.217 42.4509 147.166 42.326C147.116 42.2011 147.036 42.0901 146.934 42.0024C146.66 41.8342 146.339 41.7573 146.018 41.7828H144.96V43.633ZM144.96 44.7019V46.6844H146.256C146.555 46.7024 146.852 46.6118 147.09 46.4291C147.19 46.3424 147.269 46.234 147.321 46.1122C147.373 45.9904 147.397 45.8583 147.39 45.726C147.407 45.5857 147.392 45.4433 147.345 45.3099C147.298 45.1765 147.221 45.0556 147.121 44.9566C147.02 44.8576 146.897 44.7832 146.763 44.739C146.629 44.6948 146.486 44.6822 146.346 44.7019H144.96Z" fill="white"/>
<path d="M13.2268 21.1565V27.9114H6.89957V6.89941H15.5148C18.4943 6.89941 20.5897 7.42771 22.0284 8.6011C23.4021 9.71958 24.0719 11.4777 24.0719 13.8315C24.1021 14.8399 23.9005 15.8418 23.4827 16.7602C23.0648 17.6785 22.4419 18.4886 21.6617 19.1284C19.8094 20.5622 17.5035 21.2826 15.1644 21.158L13.2268 21.1565ZM13.2268 11.4414V16.63H14.6484C16.4656 16.63 17.374 15.7704 17.3735 14.0511C17.3735 12.3123 16.3916 11.4429 14.428 11.4429L13.2268 11.4414Z" fill="black"/>
<path d="M26.1325 27.9114V6.89941H32.462V27.9114H26.1325Z" fill="black"/>
<path d="M51.3284 27.34C49.3897 27.9955 47.3528 28.3126 45.3067 28.2774C41.9074 28.2774 39.2603 27.3276 37.3652 25.4279C36.4045 24.4301 35.6569 23.2472 35.1682 21.9511C34.6795 20.6551 34.4599 19.2731 34.5226 17.8894C34.4626 16.3803 34.7124 14.8749 35.2567 13.4661C35.8009 12.0573 36.628 10.7749 37.687 9.69809C39.7971 7.59831 42.5861 6.54841 46.0539 6.54841C47.8329 6.54365 49.6052 6.7651 51.3284 7.20743V13.0535C49.9333 12.2893 48.3619 11.9052 46.7717 11.9397C46.0347 11.903 45.2978 12.0129 44.6036 12.2632C43.9094 12.5135 43.2719 12.8991 42.7279 13.3977C42.2102 13.9292 41.8087 14.5625 41.5489 15.2575C41.2891 15.9525 41.1767 16.6938 41.2188 17.4346C41.1797 18.1643 41.2916 18.8941 41.5474 19.5786C41.8032 20.2631 42.1974 20.8875 42.7054 21.4127C43.2372 21.9097 43.8635 22.2949 44.5469 22.5454C45.2304 22.7958 45.9572 22.9065 46.6843 22.8707C48.3017 22.8492 49.8915 22.4478 51.3253 21.6989L51.3284 27.34Z" fill="black"/>
<path d="M68.4218 27.9114L67.499 24.0439H61.2275L60.2313 27.9114H53.3889L60.6273 6.89941H68.4806L75.2943 27.9114H68.4218ZM64.8637 13.8299C64.6634 13.0553 64.5215 12.2667 64.4391 11.4708H64.2929C64.1869 12.227 64.035 12.9761 63.8381 13.7139L62.3143 19.5453H66.3272L64.8637 13.8299Z" fill="black"/>
<path d="M77.6481 27.1645V21.4058C79.3385 22.7204 81.3977 23.4734 83.5375 23.5592C84.9927 23.5592 85.7203 23.0709 85.7203 22.0942C85.7213 21.8459 85.6634 21.601 85.5514 21.3794C85.4394 21.1578 85.2765 20.9659 85.0759 20.8195C84.2512 20.2807 83.3595 19.8522 82.4236 19.5448C79.0434 18.2453 77.3536 16.145 77.3541 13.2439C77.3255 12.3073 77.5207 11.3774 77.9235 10.5314C78.3262 9.68541 78.925 8.94765 79.67 8.37939C81.4714 7.07819 83.6636 6.43216 85.8827 6.54853C87.8498 6.54228 89.8079 6.81335 91.6994 7.35373V12.7025C90.1108 11.7865 88.3163 11.2873 86.4829 11.2514C85.89 11.2235 85.3009 11.3606 84.7812 11.6474C84.5851 11.7519 84.4213 11.908 84.3076 12.0989C84.1939 12.2898 84.1346 12.5081 84.1361 12.7303C84.1323 12.9437 84.1788 13.1551 84.2718 13.3472C84.3648 13.5394 84.5017 13.7069 84.6714 13.8364C85.3441 14.2916 86.0699 14.6631 86.8325 14.9425C88.5791 15.5398 90.1655 16.5297 91.4696 17.8361C92.3597 18.8657 92.8374 20.1882 92.8109 21.5489C92.8361 22.4834 92.641 23.4107 92.2414 24.2558C91.8417 25.1009 91.2488 25.84 90.5105 26.4134C88.9764 27.6541 86.7003 28.2745 83.6821 28.2745C81.6184 28.2925 79.5703 27.9157 77.6481 27.1645Z" fill="black"/>
<path d="M95.1662 27.1644V21.4057C96.8571 22.7205 98.9169 23.4735 101.057 23.5591C102.512 23.5591 103.239 23.0708 103.24 22.0941C103.241 21.8458 103.183 21.6007 103.071 21.3791C102.959 21.1575 102.796 20.9657 102.595 20.8194C101.77 20.2805 100.879 19.8519 99.9433 19.5447C96.5631 18.2452 94.873 16.1449 94.873 13.2438C94.8445 12.3073 95.0396 11.3776 95.4422 10.5316C95.8448 9.6856 96.4433 8.94778 97.1881 8.37931C98.9899 7.07845 101.182 6.43246 103.402 6.54844C105.369 6.5422 107.327 6.81327 109.218 7.35365V12.7024C107.63 11.7866 105.835 11.2874 104.002 11.2513C103.409 11.2234 102.82 11.3605 102.3 11.6473C102.104 11.7518 101.94 11.9079 101.827 12.0988C101.713 12.2897 101.653 12.508 101.655 12.7302C101.651 12.9436 101.698 13.1548 101.79 13.3469C101.883 13.5391 102.02 13.7067 102.189 13.8363C102.864 14.2916 103.591 14.663 104.355 14.9424C106.103 15.5394 107.691 16.5293 108.996 17.8361C109.886 18.8657 110.364 20.1881 110.337 21.5488C110.363 22.4833 110.168 23.4106 109.768 24.2557C109.368 25.1008 108.775 25.8399 108.037 26.4133C106.503 27.654 104.227 28.2744 101.209 28.2744C99.1421 28.2934 97.091 27.9166 95.1662 27.1644Z" fill="black"/>
<path d="M112.389 27.8901V6.87891H118.718V27.8901H112.389Z" fill="black"/>
<path d="M131.288 28.2773C129.887 28.3266 128.491 28.0856 127.188 27.5693C125.885 27.053 124.703 26.2727 123.716 25.2774C122.73 24.282 121.959 23.0932 121.454 21.7858C120.949 20.4784 120.721 19.0806 120.782 17.6804C120.727 16.2125 120.964 14.7483 121.479 13.3729C121.995 11.9975 122.779 10.7383 123.785 9.66851C124.792 8.63298 126.004 7.82019 127.345 7.2827C128.685 6.74522 130.123 6.495 131.566 6.54823C132.952 6.49551 134.333 6.73205 135.622 7.24278C136.911 7.7535 138.08 8.52721 139.053 9.51459C140.032 10.5617 140.792 11.7939 141.288 13.1389C141.784 14.4838 142.005 15.9143 141.94 17.3462C141.998 18.7985 141.758 20.2472 141.237 21.6038C140.715 22.9604 139.922 24.1963 138.907 25.2359C137.912 26.2369 136.723 27.0233 135.412 27.5464C134.102 28.0695 132.698 28.3183 131.288 28.2773ZM131.507 11.9395C130.934 11.9143 130.363 12.0331 129.848 12.2849C129.332 12.5367 128.888 12.9136 128.555 13.3813C127.789 14.5882 127.422 16.0058 127.508 17.4329C127.416 18.8568 127.792 20.2717 128.577 21.4628C128.899 21.9097 129.324 22.2714 129.817 22.5165C130.31 22.7615 130.855 22.8825 131.405 22.869C131.941 22.8728 132.471 22.7469 132.948 22.5021C133.425 22.2572 133.835 21.9006 134.145 21.4628C134.933 20.3041 135.314 18.9165 135.228 17.5179C135.306 16.0832 134.956 14.6576 134.222 13.4223C133.937 12.9606 133.537 12.5811 133.061 12.3211C132.585 12.0611 132.05 11.9295 131.507 11.9395Z" fill="black"/>
</g>
<defs>
<clipPath id="clip0_172_1352">
<rect width="148.903" height="48" fill="white"/>
</clipPath>
</defs>
</svg>
