<svg width="28" height="28" viewBox="0 0 28 28" fill="none" xmlns="http://www.w3.org/2000/svg">
<g filter="url(#filter0_d_171_28)">
<mask id="path-1-outside-1_171_28" maskUnits="userSpaceOnUse" x="0" y="0" width="26" height="25" fill="black">
<rect fill="white" width="26" height="25"/>
<path fill-rule="evenodd" clip-rule="evenodd" d="M12.6212 10.4999L5.12132 3L3 5.12132L10.4999 12.6212L3.12109 20L5.24241 22.1213L12.6212 14.7425L19.9706 22.0919L22.0919 19.9706L14.7425 12.6212L22.213 5.15076L20.0917 3.02944L12.6212 10.4999Z"/>
</mask>
<path fill-rule="evenodd" clip-rule="evenodd" d="M12.6212 10.4999L5.12132 3L3 5.12132L10.4999 12.6212L3.12109 20L5.24241 22.1213L12.6212 14.7425L19.9706 22.0919L22.0919 19.9706L14.7425 12.6212L22.213 5.15076L20.0917 3.02944L12.6212 10.4999Z" fill="black"/>
<path d="M5.12132 3L6.53553 1.58579L5.12132 0.171573L3.70711 1.58579L5.12132 3ZM12.6212 10.4999L11.207 11.9141L12.6212 13.3283L14.0354 11.9141L12.6212 10.4999ZM3 5.12132L1.58579 3.70711L0.171573 5.12132L1.58579 6.53553L3 5.12132ZM10.4999 12.6212L11.9141 14.0354L13.3283 12.6212L11.9141 11.207L10.4999 12.6212ZM3.12109 20L1.70688 18.5858L0.292667 20L1.70688 21.4142L3.12109 20ZM5.24241 22.1213L3.8282 23.5355L5.24241 24.9497L6.65663 23.5355L5.24241 22.1213ZM12.6212 14.7425L14.0354 13.3283L12.6212 11.9141L11.207 13.3283L12.6212 14.7425ZM19.9706 22.0919L18.5563 23.5061L19.9706 24.9203L21.3848 23.5061L19.9706 22.0919ZM22.0919 19.9706L23.5061 21.3848L24.9203 19.9706L23.5061 18.5563L22.0919 19.9706ZM14.7425 12.6212L13.3283 11.207L11.9141 12.6212L13.3283 14.0354L14.7425 12.6212ZM22.213 5.15076L23.6272 6.56497L25.0414 5.15076L23.6272 3.73654L22.213 5.15076ZM20.0917 3.02944L21.5059 1.61522L20.0917 0.20101L18.6774 1.61522L20.0917 3.02944ZM3.70711 4.41421L11.207 11.9141L14.0354 9.08567L6.53553 1.58579L3.70711 4.41421ZM4.41421 6.53553L6.53553 4.41421L3.70711 1.58579L1.58579 3.70711L4.41421 6.53553ZM11.9141 11.207L4.41421 3.70711L1.58579 6.53553L9.08567 14.0354L11.9141 11.207ZM4.53531 21.4142L11.9141 14.0354L9.08567 11.207L1.70688 18.5858L4.53531 21.4142ZM6.65663 20.7071L4.53531 18.5858L1.70688 21.4142L3.8282 23.5355L6.65663 20.7071ZM11.207 13.3283L3.8282 20.7071L6.65663 23.5355L14.0354 16.1567L11.207 13.3283ZM21.3848 20.6777L14.0354 13.3283L11.207 16.1567L18.5563 23.5061L21.3848 20.6777ZM20.6777 18.5563L18.5563 20.6777L21.3848 23.5061L23.5061 21.3848L20.6777 18.5563ZM13.3283 14.0354L20.6777 21.3848L23.5061 18.5563L16.1567 11.207L13.3283 14.0354ZM20.7988 3.73654L13.3283 11.207L16.1567 14.0354L23.6272 6.56497L20.7988 3.73654ZM18.6774 4.44365L20.7988 6.56497L23.6272 3.73654L21.5059 1.61522L18.6774 4.44365ZM14.0354 11.9141L21.5059 4.44365L18.6774 1.61522L11.207 9.08567L14.0354 11.9141Z" fill="#FF80F3" mask="url(#path-1-outside-1_171_28)"/>
</g>
<defs>
<filter id="filter0_d_171_28" x="0.171387" y="0.171573" width="26.8701" height="27.7782" filterUnits="userSpaceOnUse" color-interpolation-filters="sRGB">
<feFlood flood-opacity="0" result="BackgroundImageFix"/>
<feColorMatrix in="SourceAlpha" type="matrix" values="0 0 0 0 0 0 0 0 0 0 0 0 0 0 0 0 0 0 127 0" result="hardAlpha"/>
<feOffset dx="2" dy="3"/>
<feComposite in2="hardAlpha" operator="out"/>
<feColorMatrix type="matrix" values="0 0 0 0 1 0 0 0 0 0.501961 0 0 0 0 0.952941 0 0 0 1 0"/>
<feBlend mode="normal" in2="BackgroundImageFix" result="effect1_dropShadow_171_28"/>
<feBlend mode="normal" in="SourceGraphic" in2="effect1_dropShadow_171_28" result="shape"/>
</filter>
</defs>
</svg>
