<svg width="12" height="12" viewBox="0 0 12 12" fill="none" xmlns="http://www.w3.org/2000/svg">
<path d="M10.75 7.0595L9.00845 6L10.75 4.9405C10.9311 4.83199 11.0889 4.6885 11.214 4.51838C11.3391 4.34826 11.4291 4.15494 11.4787 3.94967C11.5283 3.74441 11.5365 3.53133 11.5029 3.32285C11.4693 3.11437 11.3945 2.91467 11.2829 2.7354C11.1713 2.55613 11.0251 2.40089 10.8529 2.27872C10.6806 2.15655 10.4858 2.0699 10.2797 2.02383C10.0736 1.97777 9.86039 1.9732 9.65252 2.0104C9.44465 2.0476 9.24627 2.12582 9.06895 2.2405L7.49995 3.245V1.5C7.49995 1.10218 7.34191 0.720644 7.06061 0.43934C6.77931 0.158035 6.39777 0 5.99995 0C5.60213 0 5.22059 0.158035 4.93929 0.43934C4.65799 0.720644 4.49995 1.10218 4.49995 1.5V3.294L2.93095 2.2405C2.57314 2.02619 2.14546 1.961 1.74005 2.05899C1.33464 2.15697 0.983939 2.41028 0.763498 2.76435C0.543058 3.11842 0.470518 3.54491 0.561507 3.95195C0.652495 4.35899 0.89973 4.714 1.24995 4.9405L2.99145 6L1.24995 7.0595C0.89973 7.286 0.652495 7.64101 0.561507 8.04805C0.470518 8.45509 0.543058 8.88158 0.763498 9.23565C0.983939 9.58972 1.33464 9.84303 1.74005 9.94101C2.14546 10.039 2.57314 9.97381 2.93095 9.7595L4.49995 8.7405V10.5C4.49995 10.8978 4.65799 11.2794 4.93929 11.5607C5.22059 11.842 5.60213 12 5.99995 12C6.39777 12 6.77931 11.842 7.06061 11.5607C7.34191 11.2794 7.49995 10.8978 7.49995 10.5V8.71L9.06895 9.76C9.42676 9.97431 9.85444 10.0395 10.2599 9.94151C10.6653 9.84353 11.016 9.59022 11.2364 9.23615C11.4568 8.88208 11.5294 8.45559 11.4384 8.04855C11.3474 7.64151 11.1002 7.2865 10.75 7.06V7.0595Z" fill="#8BFF79"/>
</svg>
