<svg width="149" height="48" viewBox="0 0 149 48" fill="none" xmlns="http://www.w3.org/2000/svg">
<g clip-path="url(#clip0_320_750)">
<path d="M148.903 0H0V35.177H148.903V0Z" fill="black"/>
<path d="M0 47.8987V40.5574H2.25861C2.86468 40.5478 3.46249 40.6989 3.99123 40.9952C4.49918 41.2845 4.91281 41.7142 5.18242 42.2328C5.47523 42.7969 5.62278 43.4251 5.61171 44.0606V44.3986C5.6233 45.031 5.47849 45.6565 5.19015 46.2194C4.92205 46.7378 4.50971 47.1676 4.00284 47.457C3.47511 47.7537 2.87869 47.9066 2.2733 47.9002L0 47.8987ZM1.51296 41.7827V46.6843H2.24314C2.49872 46.6999 2.75441 46.6556 2.98982 46.5548C3.22524 46.4541 3.43386 46.2998 3.59907 46.1042C3.94159 45.6211 4.1106 45.0363 4.07864 44.445V44.0583C4.12085 43.4566 3.95719 42.8584 3.61454 42.362C3.44938 42.1663 3.24058 42.012 3.00494 41.9116C2.76931 41.8113 2.51341 41.7676 2.25783 41.7842L1.51296 41.7827Z" fill="black"/>
<path d="M12.4533 47.8987H10.938V40.5574H12.4533V47.8987Z" fill="black"/>
<path d="M23.7921 46.9713C23.4823 47.3229 23.0837 47.585 22.638 47.73C22.1065 47.9157 21.5465 48.0071 20.9835 48C20.3992 48.0125 19.8222 47.8689 19.312 47.5839C18.8293 47.3021 18.4427 46.8813 18.2028 46.3764C17.93 45.7944 17.793 45.1581 17.8021 44.5154V44.0165C17.7861 43.3626 17.9125 42.7131 18.1726 42.1129C18.3961 41.6039 18.7688 41.1747 19.2416 40.8823C19.7365 40.5905 20.3032 40.4428 20.8776 40.4561C21.6112 40.4125 22.3361 40.6337 22.9204 41.0795C23.437 41.5462 23.75 42.1969 23.7921 42.8918H22.3224C22.2892 42.5406 22.1308 42.2131 21.8761 41.9691C21.6046 41.7606 21.2672 41.6569 20.9255 41.6767C20.6964 41.6648 20.4681 41.7119 20.2624 41.8135C20.0567 41.9151 19.8805 42.0677 19.7506 42.2568C19.4449 42.7778 19.3012 43.378 19.3375 43.9809V44.4504C19.2953 45.0636 19.4488 45.6744 19.7761 46.1947C19.9253 46.3911 20.1207 46.5478 20.345 46.6507C20.5692 46.7537 20.8154 46.7997 21.0616 46.7848C21.4989 46.8274 21.9354 46.6969 22.2776 46.4213V45.1559H20.9008V44.0413H23.7898L23.7921 46.9713Z" fill="black"/>
<path d="M30.7566 47.8987H29.2437V40.5574H30.7566V47.8987Z" fill="black"/>
<path d="M41.6696 41.7826H39.4203V47.8987H37.9073V41.7826H35.689V40.5574H41.6696V41.7826Z" fill="black"/>
<path d="M50.1999 46.3865H47.5499L47.0456 47.8987H45.4375L48.1703 40.5574H49.5718L52.3201 47.8987H50.712L50.1999 46.3865ZM47.9568 45.1613H49.7923L48.8695 42.413L47.9568 45.1613Z" fill="black"/>
<path d="M58.6497 46.6843H61.8612V47.8987H57.1367V40.5574H58.6497V46.6843Z" fill="black"/>
<path d="M77.7059 46.3865H75.0544L74.5501 47.8987H72.9404L75.674 40.5574H77.0755L79.823 47.8987H78.2157L77.7059 46.3865ZM75.4628 45.1613H77.2983L76.3755 42.413L75.4628 45.1613Z" fill="black"/>
<path d="M87.3584 45.2116H86.1533V47.8987H84.6411V40.5574H87.3685C88.0846 40.5114 88.7945 40.7166 89.3757 41.1376C89.612 41.3374 89.7988 41.5894 89.9212 41.8737C90.0436 42.158 90.0984 42.4668 90.0811 42.7758C90.0974 43.2162 89.9844 43.6518 89.7562 44.0289C89.5129 44.3857 89.1703 44.6635 88.7708 44.8279L90.3588 47.8283V47.8987H88.7345L87.3584 45.2116ZM86.1533 43.9863H87.3739C87.6944 44.0066 88.0104 43.9028 88.2564 43.6963C88.3619 43.5928 88.4441 43.468 88.4975 43.3302C88.5509 43.1924 88.5742 43.0448 88.5658 42.8973C88.5742 42.7481 88.5523 42.5988 88.5015 42.4583C88.4508 42.3178 88.3721 42.189 88.2704 42.0797C88.147 41.9723 88.0033 41.8907 87.8479 41.8397C87.6925 41.7887 87.5284 41.7693 87.3654 41.7826H86.1502L86.1533 43.9863Z" fill="black"/>
<path d="M100.637 41.7826H98.3888V47.8987H96.8766V41.7826H94.6582V40.5574H100.638L100.637 41.7826Z" fill="black"/>
<path d="M117.793 45.4537C117.782 45.8079 117.699 46.1562 117.548 46.4771C117.398 46.7979 117.183 47.0845 116.917 47.3193C116.331 47.7935 115.591 48.0358 114.838 48C114.42 48.0201 114.003 47.9449 113.618 47.7803C113.233 47.6156 112.891 47.3657 112.617 47.0494C112.041 46.3057 111.753 45.3787 111.808 44.4396V43.991C111.795 43.3494 111.922 42.7127 112.181 42.1253C112.405 41.6157 112.776 41.1848 113.247 40.8877C113.814 40.5663 114.463 40.4187 115.114 40.4631C115.764 40.5075 116.387 40.7421 116.905 41.1376C117.444 41.6318 117.766 42.3181 117.803 43.0481H116.29C116.291 42.6672 116.149 42.2997 115.894 42.017C115.603 41.7818 115.232 41.6672 114.858 41.6968C114.639 41.6828 114.42 41.7252 114.222 41.82C114.023 41.9148 113.853 42.0588 113.726 42.2382C113.437 42.7495 113.303 43.3337 113.339 43.9198V44.476C113.297 45.0781 113.423 45.6801 113.704 46.2148C113.828 46.3983 113.999 46.5456 114.199 46.6421C114.399 46.7385 114.62 46.7805 114.841 46.764C115.218 46.7936 115.592 46.6795 115.887 46.4445C116.141 46.1769 116.283 45.8224 116.283 45.4537H117.793Z" fill="black"/>
<path d="M124.43 46.6843H127.642V47.8987H122.917V40.5574H124.43V46.6843Z" fill="black"/>
<path d="M138.076 40.5574V45.3933C138.094 45.7464 138.036 46.0992 137.905 46.428C137.775 46.7568 137.576 47.0538 137.322 47.2992C136.752 47.7907 136.013 48.0419 135.262 48C134.52 48.0395 133.79 47.7963 133.22 47.3193C132.964 47.0811 132.763 46.7908 132.63 46.4679C132.496 46.1451 132.434 45.7973 132.446 45.4482V40.5574H133.959V45.4042C133.942 45.5937 133.964 45.7846 134.024 45.9654C134.083 46.1461 134.179 46.3129 134.305 46.4553C134.568 46.687 134.911 46.8057 135.26 46.7856C136.111 46.7856 136.543 46.3385 136.557 45.4444V40.5574H138.076Z" fill="black"/>
<path d="M143.447 47.8987V40.5574H146.018C146.731 40.5091 147.441 40.6881 148.045 41.0687C148.275 41.2427 148.458 41.4706 148.579 41.7324C148.699 41.9942 148.753 42.2816 148.736 42.5693C148.743 42.9067 148.646 43.2381 148.459 43.5191C148.271 43.7963 148 44.0073 147.686 44.1225C148.04 44.202 148.355 44.4039 148.576 44.6925C148.798 44.9958 148.913 45.3647 148.901 45.7406C148.922 46.0421 148.871 46.3441 148.754 46.6225C148.636 46.9009 148.455 47.148 148.225 47.3441C147.665 47.7415 146.986 47.937 146.299 47.8987H143.447ZM144.96 43.6328H146.078C146.842 43.62 147.224 43.3157 147.224 42.7201C147.236 42.586 147.217 42.4508 147.166 42.3259C147.116 42.201 147.036 42.09 146.934 42.0023C146.659 41.8341 146.339 41.7572 146.018 41.7826H144.96V43.6328ZM144.96 44.7018V46.6843H146.255C146.555 46.7023 146.851 46.6117 147.09 46.429C147.19 46.3423 147.269 46.2339 147.321 46.1121C147.373 45.9902 147.397 45.8582 147.39 45.7259C147.407 45.5856 147.392 45.4432 147.345 45.3098C147.298 45.1764 147.221 45.0555 147.12 44.9565C147.019 44.8575 146.897 44.7831 146.763 44.7389C146.628 44.6947 146.486 44.682 146.346 44.7018H144.96Z" fill="black"/>
<path d="M13.2266 21.1566V27.9116H6.89941V6.89957H15.5146C18.4941 6.89957 20.5895 7.42787 22.0282 8.60126C23.4019 9.71974 24.0718 11.4779 24.0718 13.8316C24.102 14.8401 23.9004 15.842 23.4825 16.7603C23.0647 17.6786 22.4417 18.4888 21.6616 19.1285C19.8093 20.5624 17.5033 21.2827 15.1642 21.1582L13.2266 21.1566ZM13.2266 11.4415V16.6301H14.6483C16.4655 16.6301 17.3738 15.7705 17.3733 14.0513C17.3733 12.3125 16.3915 11.4431 14.4278 11.4431L13.2266 11.4415Z" fill="white"/>
<path d="M26.1323 27.9116V6.89957H32.4618V27.9116H26.1323Z" fill="white"/>
<path d="M51.3284 27.34C49.3898 27.9954 47.3529 28.3126 45.3068 28.2774C41.9075 28.2774 39.2603 27.3276 37.3653 25.4279C36.4045 24.4301 35.657 23.2472 35.1683 21.9511C34.6796 20.6551 34.4599 19.2731 34.5227 17.8894C34.4627 16.3803 34.7125 14.8749 35.2567 13.4661C35.801 12.0573 36.6281 10.7749 37.6871 9.69808C39.7972 7.5983 42.5861 6.54841 46.054 6.54841C47.8329 6.54365 49.6053 6.7651 51.3284 7.20743V13.0535C49.9334 12.2893 48.362 11.9052 46.7718 11.9397C46.0348 11.903 45.2978 12.0129 44.6036 12.2632C43.9095 12.5135 43.2719 12.8991 42.7279 13.3977C42.2103 13.9292 41.8088 14.5625 41.549 15.2575C41.2892 15.9525 41.1768 16.6938 41.2188 17.4346C41.1798 18.1642 41.2916 18.8941 41.5474 19.5786C41.8032 20.2631 42.1975 20.8875 42.7055 21.4127C43.2373 21.9097 43.8635 22.2949 44.547 22.5453C45.2305 22.7958 45.9573 22.9064 46.6844 22.8707C48.3018 22.8492 49.8915 22.4478 51.3253 21.6989L51.3284 27.34Z" fill="white"/>
<path d="M68.422 27.9116L67.4992 24.0441H61.2278L60.2315 27.9116H53.3892L60.6275 6.89957H68.4808L75.2945 27.9116H68.422ZM64.864 13.8301C64.6637 13.0554 64.5217 12.2668 64.4393 11.4709H64.2931C64.1871 12.2272 64.0352 12.9763 63.8383 13.7141L62.3145 19.5454H66.3274L64.864 13.8301Z" fill="white"/>
<path d="M77.6482 27.1644V21.4057C79.3387 22.7203 81.3979 23.4733 83.5376 23.5591C84.9928 23.5591 85.7204 23.0708 85.7204 22.0941C85.7215 21.8458 85.6636 21.6008 85.5516 21.3792C85.4396 21.1577 85.2766 20.9658 85.0761 20.8194C84.2514 20.2806 83.3597 19.8521 82.4238 19.5447C79.0436 18.2452 77.3538 16.1449 77.3543 13.2438C77.3257 12.3072 77.5209 11.3773 77.9236 10.5313C78.3264 9.68529 78.9251 8.94753 79.6702 8.37927C81.4715 7.07807 83.6637 6.43204 85.8829 6.54841C87.85 6.54217 89.8081 6.81324 91.6996 7.35362V12.7023C90.111 11.7864 88.3165 11.2872 86.4831 11.2513C85.8902 11.2233 85.3011 11.3604 84.7814 11.6473C84.5853 11.7517 84.4215 11.9079 84.3078 12.0987C84.1941 12.2896 84.1348 12.508 84.1363 12.7302C84.1325 12.9436 84.179 13.1549 84.272 13.3471C84.365 13.5392 84.5018 13.7068 84.6716 13.8363C85.3443 14.2915 86.07 14.6629 86.8327 14.9424C88.5793 15.5397 90.1657 16.5296 91.4698 17.836C92.3599 18.8656 92.8376 20.1881 92.8111 21.5488C92.8363 22.4833 92.6412 23.4106 92.2416 24.2556C91.8419 25.1007 91.249 25.8399 90.5107 26.4133C88.9766 27.654 86.7005 28.2743 83.6823 28.2743C81.6186 28.2924 79.5704 27.9156 77.6482 27.1644Z" fill="white"/>
<path d="M95.166 27.1644V21.4057C96.8569 22.7205 98.9167 23.4734 101.057 23.5591C102.512 23.5591 103.239 23.0708 103.24 22.0941C103.241 21.8457 103.183 21.6007 103.071 21.3791C102.959 21.1575 102.795 20.9657 102.595 20.8194C101.77 20.2804 100.879 19.8519 99.9431 19.5447C96.5629 18.2452 94.8728 16.1449 94.8728 13.2438C94.8443 12.3073 95.0395 11.3775 95.4421 10.5315C95.8447 9.68556 96.4432 8.94774 97.1879 8.37927C98.9898 7.07841 101.182 6.43242 103.401 6.54841C105.369 6.54217 107.327 6.81324 109.218 7.35361V12.7023C107.629 11.7866 105.835 11.2874 104.002 11.2513C103.409 11.2233 102.82 11.3604 102.3 11.6473C102.104 11.7517 101.94 11.9079 101.826 12.0987C101.713 12.2896 101.653 12.508 101.655 12.7302C101.651 12.9435 101.697 13.1548 101.79 13.3469C101.883 13.539 102.02 13.7067 102.189 13.8363C102.864 14.2916 103.591 14.663 104.355 14.9424C106.103 15.5394 107.691 16.5293 108.996 17.836C109.886 18.8656 110.364 20.1881 110.337 21.5488C110.363 22.4833 110.167 23.4106 109.768 24.2556C109.368 25.1007 108.775 25.8399 108.037 26.4133C106.503 27.654 104.227 28.2743 101.209 28.2743C99.142 28.2934 97.0909 27.9166 95.166 27.1644Z" fill="white"/>
<path d="M112.389 27.8899V6.87869H118.718V27.8899H112.389Z" fill="white"/>
<path d="M131.288 28.2774C129.887 28.3268 128.491 28.0858 127.188 27.5695C125.885 27.0532 124.703 26.2729 123.717 25.2775C122.73 24.2822 121.96 23.0934 121.455 21.786C120.95 20.4786 120.721 19.0808 120.782 17.6805C120.727 16.2127 120.964 14.7485 121.48 13.3731C121.995 11.9976 122.779 10.7384 123.786 9.66869C124.792 8.63315 126.005 7.82036 127.345 7.28287C128.685 6.74539 130.123 6.49517 131.566 6.54841C132.952 6.49568 134.333 6.73222 135.622 7.24295C136.912 7.75368 138.08 8.52739 139.054 9.51476C140.033 10.5618 140.792 11.7941 141.288 13.139C141.784 14.484 142.006 15.9145 141.94 17.3464C141.998 18.7987 141.759 20.2474 141.237 21.604C140.715 22.9605 139.922 24.1964 138.907 25.236C137.912 26.2371 136.723 27.0234 135.413 27.5466C134.102 28.0697 132.698 28.3184 131.288 28.2774ZM131.508 11.9397C130.934 11.9145 130.364 12.0332 129.848 12.2851C129.332 12.5369 128.888 12.9138 128.555 13.3815C127.789 14.5884 127.422 16.006 127.508 17.433C127.416 18.857 127.792 20.2719 128.578 21.4629C128.899 21.9099 129.324 22.2716 129.817 22.5166C130.31 22.7617 130.855 22.8827 131.405 22.8692C131.942 22.873 132.471 22.7471 132.948 22.5022C133.425 22.2574 133.836 21.9008 134.145 21.4629C134.933 20.3043 135.314 18.9167 135.228 17.5181C135.306 16.0834 134.956 14.6578 134.222 13.4225C133.938 12.9608 133.538 12.5812 133.062 12.3212C132.585 12.0612 132.05 11.9297 131.508 11.9397Z" fill="white"/>
</g>
<defs>
<clipPath id="clip0_320_750">
<rect width="148.903" height="48" fill="white"/>
</clipPath>
</defs>
</svg>
