<svg width="18" height="20" viewBox="0 0 18 20" fill="none" xmlns="http://www.w3.org/2000/svg">
<path d="M15.7804 3.08654C14.617 1.09615 13.0304 0 11.3093 0H6.69389C4.97273 0 3.38619 1.09615 2.22273 3.08654C1.05927 5.07692 0.540039 7.40385 0.540039 10C0.540039 12.5962 1.13619 15.0577 2.22273 16.9135C3.30927 18.7692 4.97273 20 6.69389 20H11.3093C13.0304 20 14.617 18.9038 15.7804 16.9135C16.9439 14.9231 17.4631 12.5962 17.4631 10C17.4631 7.40385 16.867 4.94231 15.7804 3.08654ZM15.9054 9.23077H12.8285C12.7516 7.57692 12.4343 5.99038 11.8958 4.61538H14.8381C15.4247 5.90385 15.8189 7.5 15.9054 9.23077ZM13.9247 3.07692H11.165C10.8394 2.52238 10.4524 2.0063 10.0112 1.53846H11.3093C12.2708 1.53846 13.1747 2.11538 13.9247 3.07692ZM11.3093 18.4615H10.0112C10.4524 17.9937 10.8394 17.4776 11.165 16.9231H13.9247C13.1747 17.8846 12.2708 18.4615 11.3093 18.4615ZM14.8381 15.3846H11.8958C12.4343 14.0096 12.7516 12.4231 12.8285 10.7692H15.9054C15.8189 12.5 15.4247 14.0962 14.8381 15.3846Z" fill="black"/>
</svg>
