<svg width="16" height="13" viewBox="0 0 16 13" fill="none" xmlns="http://www.w3.org/2000/svg">
<path d="M3.24863 6.44762e-09H12.7513C12.8565 -1.46222e-05 12.9602 0.0248636 13.0539 0.0726012C13.1477 0.120339 13.2288 0.18958 13.2906 0.274667L15.8393 3.77867C15.8846 3.84101 15.9069 3.91714 15.9024 3.99408C15.8979 4.07102 15.8669 4.14402 15.8146 4.20067L8.24463 12.4013C8.21343 12.4351 8.17558 12.462 8.13348 12.4804C8.09137 12.4988 8.04592 12.5083 7.99997 12.5083C7.95402 12.5083 7.90856 12.4988 7.86646 12.4804C7.82435 12.462 7.78651 12.4351 7.7553 12.4013L0.185302 4.20133C0.132869 4.14464 0.101745 4.07151 0.0972462 3.99442C0.0927473 3.91733 0.115153 3.84107 0.160635 3.77867L2.7093 0.274667C2.77115 0.18958 2.85226 0.120339 2.946 0.0726012C3.03974 0.0248636 3.14344 -1.46222e-05 3.24863 6.44762e-09Z" fill="black"/>
</svg>
