<svg width="20" height="20" viewBox="0 0 20 20" fill="none" xmlns="http://www.w3.org/2000/svg">
<path d="M10 0C15.5231 0 20 4.47688 20 10C20 15.5231 15.5231 20 10 20C4.47688 20 0 15.5231 0 10C0 4.47688 4.47688 0 10 0ZM15.4412 12.1981H6.4625C6.36543 12.198 6.27223 12.2362 6.20312 12.3044L4.42937 14.0638C4.40363 14.0892 4.38605 14.1217 4.3789 14.1572C4.37176 14.1927 4.37536 14.2295 4.38925 14.2629C4.40315 14.2964 4.4267 14.3249 4.45689 14.3448C4.48709 14.3648 4.52255 14.3753 4.55875 14.375H13.5375C13.6346 14.3751 13.7278 14.3369 13.7969 14.2688L15.5706 12.5087C15.5962 12.4833 15.6135 12.4508 15.6206 12.4154C15.6276 12.38 15.6239 12.3434 15.6101 12.3101C15.5962 12.2768 15.5727 12.2484 15.5427 12.2284C15.5126 12.2085 15.4773 12.1979 15.4412 12.1981ZM13.5375 8.89062H4.55875L4.51625 8.895C4.48455 8.90228 4.45538 8.91793 4.43178 8.94032C4.40819 8.96271 4.39103 8.99102 4.38209 9.02229C4.37315 9.05357 4.37277 9.08667 4.38098 9.11814C4.38918 9.14962 4.40568 9.17832 4.42875 9.20125L6.20375 10.9613L6.2475 10.9987C6.31 11.0425 6.385 11.0675 6.4625 11.0675H15.4412L15.4838 11.0631C15.5155 11.0558 15.5446 11.0402 15.5682 11.0178C15.5918 10.9954 15.609 10.9671 15.6179 10.9358C15.6268 10.9046 15.6272 10.8715 15.619 10.84C15.6108 10.8085 15.5943 10.7798 15.5712 10.7569L13.7962 8.99688L13.7525 8.95938C13.6898 8.91455 13.6146 8.8905 13.5375 8.89062ZM15.4412 5.625H6.4625C6.36543 5.6249 6.27223 5.66307 6.20312 5.73125L4.42937 7.49125C4.40384 7.51672 4.38646 7.54921 4.37944 7.58459C4.37242 7.61997 4.37607 7.65664 4.38994 7.68993C4.40381 7.72323 4.42726 7.75165 4.45732 7.77158C4.48738 7.79151 4.52268 7.80206 4.55875 7.80188H13.5375C13.6346 7.80198 13.7278 7.7638 13.7969 7.69562L15.5706 5.93625C15.5964 5.91081 15.6139 5.87827 15.6211 5.84278C15.6282 5.8073 15.6246 5.77049 15.6107 5.73706C15.5969 5.70364 15.5733 5.67512 15.5431 5.65515C15.5129 5.63519 15.4774 5.62469 15.4412 5.625Z" fill="black"/>
</svg>
