<svg width="18" height="18" viewBox="0 0 18 18" fill="none" xmlns="http://www.w3.org/2000/svg">
    <path
        d="M17.3337 9.00002C17.3337 7.90567 17.1181 6.82204 16.6993 5.81099C16.2805 4.79994 15.6667 3.88129 14.8929 3.10746C14.1191 2.33364 13.2004 1.71981 12.1894 1.30102C11.1783 0.882235 10.0947 0.666687 9.00033 0.666687C6.79019 0.666687 4.67057 1.54466 3.10777 3.10746C1.54497 4.67027 0.666992 6.78988 0.666992 9.00002C0.666992 11.2102 1.54497 13.3298 3.10777 14.8926C4.67057 16.4554 6.79019 17.3334 9.00033 17.3334C11.2105 17.3334 13.3301 16.4554 14.8929 14.8926C16.4557 13.3298 17.3337 11.2102 17.3337 9.00002ZM15.6087 8.16669H13.167C13.0296 6.20681 12.358 4.32198 11.2253 2.71669C12.389 3.12999 13.4151 3.85841 14.1891 4.82072C14.963 5.78303 15.4545 6.94141 15.6087 8.16669ZM6.56699 9.83335H11.5003C11.2871 11.8922 10.4095 13.8257 9.00033 15.3417C7.59205 13.832 6.73465 11.8911 6.56699 9.83335ZM6.56699 8.16669C6.76106 6.11821 7.61498 4.18812 9.00033 2.66669C10.4209 4.17179 11.3004 6.10672 11.5003 8.16669H6.56699ZM6.86699 2.69169C5.72828 4.30587 5.04599 6.19729 4.89199 8.16669H2.39199C2.54941 6.92627 3.0525 5.75512 3.8438 4.787C4.6351 3.81887 5.68271 3.0928 6.86699 2.69169ZM2.39199 9.83335H4.89199C5.02923 11.8011 5.70689 13.6927 6.85033 15.3C5.6703 14.897 4.62698 14.171 3.83888 13.2047C3.05078 12.2383 2.5495 11.0703 2.39199 9.83335ZM11.1837 15.2917C12.324 13.6839 13.0092 11.7981 13.167 9.83335H15.6253C15.4677 11.0669 14.9683 12.2318 14.1834 13.1963C13.3985 14.1609 12.3594 14.8867 11.1837 15.2917Z"
        fill="black" />
</svg>