<svg width="32" height="32" viewBox="0 0 32 32" fill="none" xmlns="http://www.w3.org/2000/svg">
<g clip-path="url(#clip0_389_362)">
<path d="M24.4211 7.57898H7.5791V24.421H24.4211V7.57898Z" fill="white"/>
<path d="M24.4211 32L32.0001 24.421L28.2106 23.7745L24.4211 24.421L23.7295 27.8872L24.4211 32Z" fill="#EA4335"/>
<path d="M0 24.421V29.4736C0 30.8695 1.1305 32 2.52625 32H7.579L8.35713 28.2105L7.579 24.421L3.44988 23.7745L0 24.421Z" fill="#188038"/>
<path d="M32.0001 7.579V2.52625C32.0001 1.1305 30.8696 0 29.4739 0H24.4211C23.9601 1.8795 23.7295 3.26262 23.7295 4.1495C23.7295 5.03625 23.9601 6.1795 24.4211 7.579C26.0974 8.059 27.3605 8.299 28.2106 8.299C29.0607 8.299 30.3239 8.059 32.0001 7.579Z" fill="#1967D2"/>
<path d="M31.9999 7.57898H24.4209V24.421H31.9999V7.57898Z" fill="#FBBC04"/>
<path d="M24.4211 24.421H7.5791V32H24.4211V24.421Z" fill="#34A853"/>
<path d="M24.421 0H2.52638C1.1305 0 0 1.1305 0 2.52625V24.421H7.579V7.579H24.421V0Z" fill="#4285F4"/>
<path d="M11.0337 20.6442C10.4042 20.219 9.96834 19.598 9.73047 18.7767L11.1916 18.1747C11.3241 18.68 11.5557 19.0716 11.8863 19.3495C12.2147 19.6274 12.6147 19.7642 13.0821 19.7642C13.56 19.7642 13.9705 19.619 14.3136 19.3284C14.6568 19.0379 14.8295 18.6674 14.8295 18.219C14.8295 17.76 14.6483 17.3852 14.2863 17.0947C13.9242 16.8042 13.4695 16.659 12.9263 16.659H12.0821V15.2127H12.84C13.3073 15.2127 13.701 15.0864 14.021 14.8336C14.341 14.5811 14.501 14.2357 14.501 13.7957C14.501 13.4042 14.3578 13.0926 14.0716 12.859C13.7853 12.6252 13.4231 12.5074 12.9831 12.5074C12.5536 12.5074 12.2126 12.6211 11.96 12.8505C11.7075 13.0806 11.5177 13.3711 11.4083 13.6947L9.96209 13.0926C10.1536 12.5495 10.5052 12.0695 11.021 11.6547C11.5368 11.24 12.1957 11.0316 12.9957 11.0316C13.5873 11.0316 14.12 11.1454 14.5916 11.3747C15.0631 11.6042 15.4336 11.9221 15.701 12.3264C15.9685 12.7326 16.101 13.1874 16.101 13.6926C16.101 14.2084 15.9768 14.6442 15.7285 15.0021C15.48 15.36 15.1747 15.6336 14.8126 15.8252V15.9115C15.2802 16.1043 15.6863 16.4209 15.9873 16.8274C16.2926 17.2379 16.4463 17.7284 16.4463 18.3011C16.4463 18.8736 16.301 19.3852 16.0105 19.8336C15.72 20.2821 15.318 20.6357 14.8083 20.8926C14.2968 21.1495 13.7221 21.2801 13.0842 21.2801C12.3452 21.2821 11.6631 21.0695 11.0336 20.6442H11.0337ZM20.0083 13.3936L18.4042 14.5536L17.6021 13.3369L20.48 11.261H21.5831V21.0526H20.0083V13.3937V13.3936Z" fill="#4285F4"/>
</g>
<defs>
<clipPath id="clip0_389_362">
<rect width="32" height="32" fill="white"/>
</clipPath>
</defs>
</svg>
