<svg width="32" height="32" viewBox="0 0 32 32" fill="none" xmlns="http://www.w3.org/2000/svg">
<path d="M27.8548 28.335H4.1448C3.82124 28.335 3.51093 28.2065 3.28213 27.9777C3.05334 27.7489 2.9248 27.4386 2.9248 27.115V10.5075C2.9248 8.69003 4.3373 7.21753 6.07981 7.21753H25.9223C27.6648 7.21753 29.0773 8.69003 29.0773 10.5075V27.115C29.0773 27.79 28.5298 28.335 27.8548 28.335Z" fill="#FAFAFA" stroke="#BDBDBD" stroke-width="0.5625" stroke-miterlimit="10"/>
<path d="M28.0272 1H26.8272C26.5772 1 26.3747 1.2025 26.3747 1.4525V2.475C26.3747 2.6425 26.4697 2.7875 26.6122 2.875C27.1147 3.175 27.4222 3.7675 27.2897 4.4175C27.1772 4.9675 26.7372 5.4125 26.1872 5.5275C25.9759 5.57392 25.7569 5.57238 25.5463 5.52298C25.3357 5.47359 25.1389 5.3776 24.9703 5.24209C24.8016 5.10657 24.6656 4.93497 24.572 4.73992C24.4785 4.54487 24.4298 4.33132 24.4297 4.115C24.4297 3.585 24.7147 3.1225 25.1422 2.8725C25.2847 2.7875 25.3772 2.6425 25.3772 2.4775V1.4525C25.3772 1.2025 25.1747 1 24.9247 1H7.06723C6.82223 1 6.62473 1.1975 6.62473 1.4425V2.4825C6.62473 2.645 6.71723 2.7875 6.85723 2.87C7.11858 3.02349 7.32508 3.25523 7.44756 3.53247C7.57003 3.80971 7.60227 4.11844 7.53973 4.415C7.42723 4.965 6.98723 5.41 6.43723 5.525C6.22594 5.57142 6.00694 5.56988 5.79633 5.52048C5.58572 5.47109 5.38887 5.3751 5.22025 5.23959C5.05164 5.10407 4.91555 4.93247 4.82201 4.73742C4.72846 4.54237 4.67985 4.32882 4.67973 4.1125C4.67973 3.58 4.96973 3.1175 5.39723 2.865C5.53473 2.785 5.62473 2.64 5.62473 2.48V1.4425C5.62473 1.1975 5.42723 1 5.18223 1H3.96973C3.58848 1 3.22284 1.15145 2.95326 1.42103C2.68368 1.69062 2.53223 2.05625 2.53223 2.4375V11.8175H29.4247L29.4647 2.445C29.4659 2.25555 29.4295 2.06774 29.3578 1.89239C29.2861 1.71705 29.1803 1.55763 29.0467 1.42331C28.9131 1.289 28.7542 1.18245 28.5793 1.1098C28.4043 1.03715 28.2167 0.999832 28.0272 1Z" fill="#F44336"/>
<path d="M11.2721 3.86503H12.3021V7.32503C12.3021 7.64253 12.2321 7.92503 12.0921 8.16753C11.9521 8.41003 11.7521 8.60003 11.4971 8.73253C11.2396 8.86503 10.9521 8.93253 10.6296 8.93253C10.1021 8.93253 9.68965 8.79753 9.39465 8.53003C9.09965 8.26253 8.95215 7.88003 8.95215 7.39003H9.98965C9.98965 7.63503 10.0421 7.81503 10.1446 7.93253C10.2471 8.05003 10.4096 8.10753 10.6321 8.10753C10.8296 8.10753 10.9846 8.04003 11.1021 7.90503C11.2196 7.77003 11.2771 7.57753 11.2771 7.32753V3.86503H11.2721ZM15.3421 8.48503C15.0971 8.78253 14.7596 8.93003 14.3271 8.93003C13.9296 8.93003 13.6246 8.81503 13.4171 8.58753C13.2071 8.36003 13.0996 8.02253 13.0971 7.58253V5.15003H14.0896V7.55253C14.0896 7.94003 14.2646 8.13253 14.6171 8.13253C14.9546 8.13253 15.1846 8.01503 15.3096 7.78253V5.15003H16.3046V8.86253H15.3721L15.3421 8.48503ZM18.0971 8.86253H17.1021V3.59253H18.0971V8.86253ZM20.2996 7.45753L20.9871 5.14753H22.0521L20.5596 9.43753L20.4771 9.63253C20.2546 10.1175 19.8896 10.36 19.3796 10.36C19.2346 10.36 19.0896 10.3375 18.9396 10.295V9.54253L19.0896 9.54503C19.2771 9.54503 19.4171 9.51753 19.5096 9.46003C19.6021 9.40253 19.6746 9.30753 19.7271 9.17503L19.8446 8.87003L18.5446 5.14753H19.6121L20.2996 7.45753Z" fill="white"/>
<path d="M13.305 25.5775H11.1625V17.315L8.60254 18.1075V16.365L13.075 14.7625H13.305V25.5775ZM23.3975 15.975L19.2225 25.5775H16.96L21.1425 16.5075H15.7725V14.78H23.3975V15.975Z" fill="black"/>
</svg>
