<svg width="32" height="32" viewBox="0 0 32 32" fill="none" xmlns="http://www.w3.org/2000/svg">
<path d="M19.4844 7.93701V13.414L21.4004 14.619C21.4695 14.6342 21.5412 14.6342 21.6104 14.619L29.8484 9.06501C29.8424 8.79546 29.7437 8.5362 29.5691 8.33078C29.3945 8.12537 29.1544 7.98632 28.8894 7.93701H19.4844Z" fill="#0072C6"/>
<path d="M19.4836 15.457L21.2306 16.657C21.3124 16.7068 21.4063 16.7332 21.5021 16.7332C21.5978 16.7332 21.6918 16.7068 21.7736 16.657C21.4736 16.838 29.8466 11.279 29.8466 11.279V21.345C29.8684 21.549 29.8454 21.7552 29.7792 21.9494C29.713 22.1435 29.6051 22.3209 29.4632 22.469C29.3213 22.6171 29.1487 22.7324 28.9575 22.8069C28.7664 22.8813 28.5613 22.9131 28.3566 22.9H19.4826V15.457H19.4836ZM10.4396 12.932C10.1493 12.9306 9.86405 13.0077 9.61406 13.1553C9.36407 13.3028 9.15865 13.5152 9.01956 13.77C8.63968 14.4454 8.4574 15.214 8.49356 15.988C8.45408 16.7604 8.63661 17.528 9.01956 18.2C9.15807 18.4443 9.35843 18.6478 9.60052 18.7901C9.84261 18.9325 10.1179 19.0086 10.3987 19.0108C10.6795 19.013 10.956 18.9413 11.2003 18.8028C11.4446 18.6644 11.6482 18.4641 11.7906 18.222C12.1693 17.5531 12.3481 16.7895 12.3056 16.022C12.3489 15.2304 12.1761 14.4419 11.8056 13.741C11.6731 13.4945 11.4759 13.2889 11.2352 13.1463C10.9944 13.0038 10.7193 12.9296 10.4396 12.932Z" fill="#0072C6"/>
<path d="M2.15332 5.155V26.582L18.4533 30V2L2.15332 5.155ZM13.0613 19.491C12.7564 19.9209 12.351 20.2696 11.8803 20.5068C11.4097 20.744 10.8882 20.8626 10.3613 20.852C9.84767 20.8611 9.33941 20.7461 8.87977 20.5166C8.42013 20.2871 8.02272 19.95 7.72132 19.534C7.00651 18.536 6.64893 17.3262 6.70632 16.1C6.64551 14.8136 7.00956 13.543 7.74232 12.484C8.05109 12.0459 8.46289 11.6906 8.94142 11.4492C9.41995 11.2078 9.95051 11.0879 10.4863 11.1C10.9963 11.0898 11.5009 11.2049 11.956 11.4352C12.411 11.6655 12.8026 12.004 13.0963 12.421C13.804 13.4406 14.1555 14.6653 14.0963 15.905C14.1587 17.182 13.7946 18.4436 13.0613 19.491Z" fill="#0072C6"/>
</svg>
